<svg width="142" height="39" viewBox="0 0 142 39" fill="none" xmlns="http://www.w3.org/2000/svg">
<path d="M64.909 9.85766C59.5857 9.85766 56.2587 13.5302 56.2587 19.4037C56.2587 25.2772 59.5857 28.937 64.909 28.937C70.2195 28.937 73.5593 25.2772 73.5593 19.4037C73.5593 13.5302 70.2195 9.85766 64.909 9.85766ZM64.909 12.3785C68.4152 12.3785 70.6162 15.0914 70.6162 19.4037C70.6162 23.7033 68.4152 26.4161 64.909 26.4161C61.4028 26.4161 59.189 23.7033 59.189 19.4037C59.189 15.0914 61.4028 12.3785 64.909 12.3785ZM75.965 28.6299H78.729V20.7857C78.729 18.6999 79.9831 17.3179 81.9281 17.3179C83.8476 17.3179 84.7945 18.4312 84.7945 20.453V28.6299H87.5713V19.9156C87.5713 16.8317 85.8694 14.9378 82.9006 14.9378C80.8276 14.9378 79.3944 15.8847 78.6651 17.4203H78.6011V15.1681H75.965V28.6299ZM99.1648 24.6758C98.7937 25.8531 97.6292 26.6465 96.0553 26.6465C93.8415 26.6465 92.4339 25.0981 92.4339 22.7564V22.59H101.942V21.6431C101.942 17.5611 99.6127 14.925 95.8761 14.925C92.0756 14.925 89.6443 17.7402 89.6443 21.963C89.6443 26.2114 92.0372 28.8858 95.9913 28.8858C99.0752 28.8858 101.404 27.1327 101.788 24.6758H99.1648ZM95.8761 17.1516C97.8084 17.1516 99.1136 18.5976 99.1776 20.6578H92.4467C92.5875 18.6231 93.9439 17.1516 95.8761 17.1516ZM109.146 28.8602C111.104 28.8602 112.639 27.8749 113.433 26.3393H113.484V28.6299H116.171V10.1648H113.394V17.4075H113.343C112.588 15.9231 111.053 14.9506 109.12 14.9506C105.742 14.9506 103.49 17.6506 103.49 21.899C103.49 26.1474 105.742 28.8602 109.146 28.8602ZM109.875 17.2795C112 17.2795 113.42 19.1094 113.42 21.899C113.42 24.7142 112 26.5185 109.875 26.5185C107.687 26.5185 106.318 24.7398 106.318 21.899C106.318 19.071 107.687 17.2795 109.875 17.2795ZM120.356 33.646C123.145 33.646 124.476 32.5967 125.628 29.3337L130.669 15.1681H127.752L124.348 26.1218H124.297L120.893 15.1681H117.899L122.761 28.6427C122.761 28.6555 122.518 29.4488 122.518 29.4744C122.096 30.8564 121.405 31.3939 120.125 31.3939C119.895 31.3939 119.434 31.3939 119.229 31.3427V33.5821C119.434 33.6205 120.125 33.646 120.356 33.646Z" fill="black"/>
<path fill-rule="evenodd" clip-rule="evenodd" d="M20.0754 24.877C23.6015 30.9558 31.4111 33.0386 37.5185 29.529L38.6636 31.5029C31.4608 35.642 22.2506 33.1857 18.0921 26.0166L20.0754 24.877Z" fill="#FF5722"/>
<path d="M42.0744 31.2681C42.0744 34.0546 39.8048 36.3135 37.0052 36.3135C34.2056 36.3135 31.936 34.0546 31.936 31.2681C31.936 28.4816 34.2056 26.2227 37.0052 26.2227C39.8048 26.2227 42.0744 28.4816 42.0744 31.2681Z" fill="#FF5722"/>
<path fill-rule="evenodd" clip-rule="evenodd" d="M0 18.1509C0 8.79379 7.52704 1.18646 16.8834 1C15.6369 3.4168 14.785 6.06044 14.41 8.85051C10.2105 9.91052 7.09685 13.7849 7.09685 18.4022C7.09685 23.8359 11.409 28.2408 16.7283 28.2408C17.4495 28.2408 18.1522 28.1598 18.8282 28.0063C20.4225 30.4516 22.6452 32.2755 25.1601 33.3883C22.7875 34.6132 20.0925 35.3053 17.2352 35.3053C7.71644 35.3053 0 27.625 0 18.1509ZM26.8218 32.4089C31.4343 29.3305 34.4703 24.0936 34.4703 18.1509C34.4703 10.8029 29.8286 4.53394 23.3044 2.09033C21.8993 4.25504 20.9368 6.7201 20.5407 9.36453C23.9638 10.8733 26.3597 14.3519 26.3597 18.4022C26.3597 22.5303 23.8707 26.0647 20.3422 27.5247C21.9757 29.8646 24.2684 31.5281 26.8218 32.4089Z" fill="#FF5722"/>
</svg>
